<?xml version="1.0" encoding="UTF-8" standalone="no"?>
<!DOCTYPE svg PUBLIC "-//W3C//DTD SVG 1.1//EN" "http://www.w3.org/Graphics/SVG/1.1/DTD/svg11.dtd">
<svg width="100%" height="100%" viewBox="0 0 1500 382" version="1.1" xmlns="http://www.w3.org/2000/svg" xmlns:xlink="http://www.w3.org/1999/xlink" xml:space="preserve" xmlns:serif="http://www.serif.com/" style="fill-rule:evenodd;clip-rule:evenodd;stroke-linejoin:round;stroke-miterlimit:2;">
    <g transform="matrix(6.85167,0,0,6.72866,-6112.77,-8258.27)">
        <g>
            <g transform="matrix(1,0,0,1,-73.7721,-21.8508)">
                <path d="M1005.77,1303.83C987.331,1309 970.422,1302.87 967.07,1289.69C963.127,1274.19 977.236,1257.2 998.557,1251.78C1003.98,1250.4 1009.34,1249.9 1014.39,1250.18C1011.28,1250.4 1008.1,1250.91 1004.9,1251.72C983.579,1257.14 969.47,1274.13 973.413,1289.63C976.354,1301.2 990.929,1303.02 1005.77,1303.83Z" style="fill:rgb(255,67,11);"/>
            </g>
            <g transform="matrix(1,0,0,1,-105.686,-98.7022)">
                <path d="M1039.71,1356.49C1040.51,1358.37 1040.95,1360.44 1040.95,1362.62C1040.95,1371.09 1034.28,1377.97 1026.06,1377.97C1018.89,1377.97 1012.9,1372.74 1011.49,1365.78C1012.63,1366.35 1014.09,1366.56 1015.28,1366.57C1017.66,1366.6 1029.91,1366.08 1039.71,1356.49ZM1012.34,1358.41C1012.34,1358.41 1012.5,1357.81 1012.56,1357.35C1012.62,1356.89 1012.57,1356.58 1012.11,1357.26" style="fill:rgb(60,98,169);"/>
            </g>
            <g transform="matrix(1,0,0,1,-106.525,-100.259)">
                <path d="M1012.11,1357.26C1013.17,1354.33 1015.07,1351.83 1017.51,1350.06C1019.93,1348.3 1022.88,1347.27 1026.06,1347.27C1029.09,1347.27 1031.91,1348.21 1034.26,1349.81C1031.2,1352.73 1022.22,1360.52 1018.47,1361.94C1016.1,1362.84 1009.72,1366.33 1011.77,1358.33" style="fill:rgb(64,108,177);"/>
            </g>
            <g transform="matrix(0.888604,-0.00230076,0.00233202,0.900676,1.1138,75.7667)">
                <path d="M1014.66,1324.87C1014.68,1324.97 1013.95,1323.89 1013.95,1321.04C1013.95,1319.91 1014.06,1318.81 1014.27,1317.75C1013.81,1323.53 1019.84,1320.31 1022.24,1319.42C1026.3,1317.9 1035.82,1309.83 1039.59,1306.34C1044.63,1309.3 1047.32,1316.64 1046.42,1314.56C1035.39,1325.21 1021.61,1325.78 1018.93,1325.76C1017.59,1325.74 1015.95,1325.51 1014.66,1324.87Z" style="fill:rgb(84,51,42);"/>
            </g>
            <g transform="matrix(0.441907,-0.419834,0.840508,0.884698,-604.323,529.05)">
                <ellipse cx="1007.24" cy="1297.02" rx="2.497" ry="3.933" style="fill:rgb(76,72,73);"/>
            </g>
            <g transform="matrix(0.533526,-0.570062,0.570062,0.533526,-376.719,1117.61)">
                <rect x="1017.34" y="1336.9" width="7.906" height="1.589" style="fill:rgb(255,240,0);"/>
            </g>
            <g transform="matrix(0.533526,-0.570062,0.570062,0.533526,-378.523,1119.68)">
                <ellipse cx="1030.39" cy="1337.66" rx="2.039" ry="1.867" style="fill:rgb(255,240,0);"/>
            </g>
            <g transform="matrix(0.533526,-0.570062,0.570062,0.533526,-371.89,1122.13)">
                <rect x="1017.34" y="1336.9" width="7.906" height="1.589" style="fill:rgb(255,0,0);"/>
            </g>
            <g transform="matrix(0.533526,-0.570062,0.570062,0.533526,-373.694,1124.19)">
                <ellipse cx="1030.39" cy="1337.66" rx="2.039" ry="1.867" style="fill:rgb(255,0,0);"/>
            </g>
            <g transform="matrix(0.748061,-0.799289,0.502757,0.470535,-501.289,1437.81)">
                <rect x="1017.34" y="1336.9" width="7.906" height="1.589" style="fill:rgb(0,110,255);"/>
            </g>
            <g transform="matrix(0.533526,-0.570062,0.570062,0.533526,-373.559,1121.04)">
                <ellipse cx="1030.39" cy="1337.66" rx="2.039" ry="1.867" style="fill:rgb(0,110,255);"/>
            </g>
            <g transform="matrix(0.974671,-1.04142,0.570062,0.533526,-823.761,1598.41)">
                <rect x="1017.34" y="1336.9" width="7.906" height="1.589" style="fill:rgb(1,255,0);"/>
            </g>
            <g transform="matrix(0.533526,-0.570062,0.570062,0.533526,-373.43,1117.17)">
                <ellipse cx="1030.39" cy="1337.66" rx="2.039" ry="1.867" style="fill:rgb(1,255,0);"/>
            </g>
            <g transform="matrix(0.533526,-0.570062,0.570062,0.533526,-378.523,1119.68)">
                <ellipse cx="1030.39" cy="1337.66" rx="2.039" ry="1.867" style="fill:rgb(255,240,0);"/>
            </g>
            <g transform="matrix(0.533526,-0.570062,0.570062,0.533526,-371.89,1122.13)">
                <rect x="1017.34" y="1336.9" width="7.906" height="1.589" style="fill:rgb(255,0,0);"/>
            </g>
            <g transform="matrix(0.533526,-0.570062,0.570062,0.533526,-373.694,1124.19)">
                <ellipse cx="1030.39" cy="1337.66" rx="2.039" ry="1.867" style="fill:rgb(255,0,0);"/>
            </g>
            <g transform="matrix(0.748061,-0.799289,0.502757,0.470535,-501.289,1437.81)">
                <rect x="1017.34" y="1336.9" width="7.906" height="1.589" style="fill:rgb(0,110,255);"/>
            </g>
            <g transform="matrix(0.533526,-0.570062,0.570062,0.533526,-373.559,1121.04)">
                <ellipse cx="1030.39" cy="1337.66" rx="2.039" ry="1.867" style="fill:rgb(0,110,255);"/>
            </g>
            <g transform="matrix(0.533526,-0.570062,0.570062,0.533526,-373.43,1117.17)">
                <ellipse cx="1030.39" cy="1337.66" rx="2.039" ry="1.867" style="fill:rgb(1,255,0);"/>
            </g>
            <g transform="matrix(1,0,0,1,-7.48324,0)">
                <path d="M960.797,1265.02L953.464,1265.02L953.464,1262.36L963.402,1262.36L963.532,1270.98L960.888,1270.98L960.797,1265.02ZM959.006,1258.04L952.406,1258.04L952.406,1270.98L949.761,1270.98L949.761,1256.73C949.761,1256.55 949.795,1256.37 949.863,1256.21C949.931,1256.05 950.024,1255.9 950.142,1255.78C950.261,1255.66 950.402,1255.57 950.565,1255.5C950.727,1255.43 950.904,1255.4 951.094,1255.4L959.006,1255.4L959.006,1258.04ZM963.532,1257.73L960.888,1257.73L960.888,1255.34L963.532,1255.34L963.532,1257.73Z" style="fill:rgb(60,98,169);"/>
            </g>
            <g transform="matrix(1.52314,0,0,1,-502.263,0)">
                <path d="M966.525,1267.27C966.525,1267.52 966.506,1267.79 966.468,1268.07C966.43,1268.34 966.371,1268.62 966.291,1268.89C966.211,1269.17 966.108,1269.43 965.981,1269.68C965.854,1269.93 965.7,1270.15 965.52,1270.35C965.339,1270.54 965.131,1270.7 964.895,1270.81C964.659,1270.93 964.392,1270.98 964.094,1270.98L960.962,1270.98C960.797,1270.98 960.623,1270.95 960.441,1270.9C960.258,1270.84 960.077,1270.75 959.896,1270.63C959.716,1270.51 959.544,1270.35 959.379,1270.15C959.214,1269.96 959.068,1269.73 958.941,1269.45C958.814,1269.18 958.713,1268.86 958.637,1268.5C958.562,1268.13 958.524,1267.73 958.524,1267.27L958.524,1255.34L960.26,1255.34L960.26,1267.27C960.26,1267.6 960.327,1267.86 960.461,1268.05C960.594,1268.24 960.761,1268.34 960.962,1268.34L964.094,1268.34C964.312,1268.34 964.482,1268.24 964.605,1268.04C964.727,1267.85 964.788,1267.59 964.788,1267.27L964.788,1263.69C964.788,1263.36 964.724,1263.1 964.595,1262.91C964.466,1262.73 964.299,1262.63 964.094,1262.63L960.962,1262.63L960.962,1259.99L964.094,1259.99C964.259,1259.99 964.432,1260.02 964.615,1260.07C964.797,1260.13 964.979,1260.22 965.159,1260.34C965.339,1260.47 965.512,1260.62 965.677,1260.82C965.841,1261.01 965.986,1261.24 966.111,1261.52C966.236,1261.79 966.336,1262.11 966.411,1262.47C966.487,1262.83 966.525,1263.24 966.525,1263.69L966.525,1267.27Z" style="fill:rgb(64,108,177);fill-rule:nonzero;"/>
            </g>
            <g transform="matrix(1.52314,0,0,1,-502.671,0)">
                <path d="M975.775,1263.63C975.775,1264 975.733,1264.39 975.648,1264.82C975.563,1265.24 975.426,1265.63 975.237,1266C975.048,1266.36 974.801,1266.66 974.496,1266.9C974.191,1267.15 973.82,1267.27 973.384,1267.27L970.252,1267.27L970.252,1264.76L973.384,1264.76C973.62,1264.76 973.802,1264.65 973.932,1264.43C974.061,1264.21 974.125,1263.93 974.125,1263.61C974.125,1263.26 974.053,1262.99 973.908,1262.8C973.763,1262.6 973.589,1262.5 973.384,1262.5L970.252,1262.5C970.016,1262.5 969.833,1262.61 969.704,1262.83C969.575,1263.05 969.51,1263.32 969.51,1263.65L969.51,1267.34C969.51,1267.69 969.583,1267.97 969.727,1268.17C969.872,1268.36 970.051,1268.46 970.265,1268.46L973.384,1268.46L973.384,1270.98L970.252,1270.98C970.011,1270.98 969.752,1270.92 969.474,1270.79C969.195,1270.66 968.937,1270.45 968.699,1270.16C968.461,1269.88 968.261,1269.5 968.101,1269.04C967.941,1268.57 967.861,1268.01 967.861,1267.34L967.861,1263.63C967.861,1263.26 967.903,1262.87 967.988,1262.44C968.072,1262.02 968.209,1261.63 968.398,1261.26C968.588,1260.9 968.835,1260.6 969.14,1260.35C969.445,1260.11 969.815,1259.99 970.252,1259.99L973.384,1259.99C973.624,1259.99 973.884,1260.05 974.162,1260.18C974.44,1260.31 974.698,1260.52 974.937,1260.81C975.175,1261.1 975.374,1261.47 975.534,1261.94C975.695,1262.4 975.775,1262.96 975.775,1263.63Z" style="fill:rgb(64,108,177);fill-rule:nonzero;"/>
            </g>
            <g transform="matrix(1.52314,0,0,1,-502.807,0)">
                <path d="M983.262,1262.63L979.355,1262.63C979.119,1262.63 978.941,1262.72 978.82,1262.9C978.7,1263.08 978.64,1263.35 978.64,1263.69L978.64,1270.98L976.904,1270.98L976.904,1263.69C976.904,1263.24 976.941,1262.83 977.017,1262.47C977.093,1262.11 977.194,1261.79 977.321,1261.52C977.448,1261.24 977.594,1261.01 977.758,1260.82C977.923,1260.62 978.096,1260.47 978.276,1260.34C978.456,1260.22 978.639,1260.13 978.824,1260.07C979.008,1260.02 979.181,1259.99 979.341,1259.99L983.262,1259.99L983.262,1262.63Z" style="fill:rgb(60,98,169);fill-rule:nonzero;"/>
            </g>
            <g transform="matrix(1.52314,0,0,1,-502.671,0)">
                <path d="M992.231,1267.27C992.231,1267.73 992.193,1268.13 992.118,1268.5C992.042,1268.86 991.942,1269.18 991.817,1269.45C991.692,1269.73 991.548,1269.96 991.383,1270.15C991.218,1270.35 991.046,1270.51 990.865,1270.63C990.685,1270.75 990.502,1270.84 990.318,1270.9C990.133,1270.95 989.958,1270.98 989.793,1270.98L986.661,1270.98C986.421,1270.98 986.158,1270.92 985.873,1270.79C985.588,1270.66 985.324,1270.45 985.082,1270.15C984.839,1269.86 984.636,1269.48 984.474,1269.01C984.311,1268.53 984.23,1267.96 984.23,1267.27L984.23,1263.69C984.23,1263.01 984.311,1262.44 984.474,1261.97C984.636,1261.5 984.839,1261.11 985.082,1260.82C985.324,1260.52 985.588,1260.31 985.873,1260.18C986.158,1260.05 986.421,1259.99 986.661,1259.99L989.793,1259.99C990.239,1259.99 990.617,1260.11 990.929,1260.35C991.24,1260.6 991.492,1260.9 991.683,1261.27C991.875,1261.64 992.014,1262.05 992.101,1262.48C992.188,1262.91 992.231,1263.32 992.231,1263.69L992.231,1267.27ZM990.495,1263.71C990.495,1263.35 990.434,1263.07 990.314,1262.9C990.194,1262.72 990.02,1262.63 989.793,1262.63L986.674,1262.63C986.443,1262.63 986.267,1262.72 986.147,1262.9C986.027,1263.08 985.966,1263.35 985.966,1263.69L985.966,1267.27C985.966,1267.62 986.027,1267.88 986.147,1268.07C986.267,1268.25 986.443,1268.34 986.674,1268.34L989.793,1268.34C990.029,1268.34 990.205,1268.25 990.321,1268.07C990.437,1267.88 990.495,1267.62 990.495,1267.27L990.495,1263.71Z" style="fill:rgb(131,130,131);fill-rule:nonzero;"/>
            </g>
            <g transform="matrix(1.52314,0,0,1,-502.671,0)">
                <path d="M1001.67,1267.27C1001.67,1267.73 1001.63,1268.13 1001.55,1268.5C1001.48,1268.86 1001.38,1269.18 1001.25,1269.45C1001.13,1269.73 1000.99,1269.96 1000.82,1270.15C1000.65,1270.35 1000.48,1270.51 1000.3,1270.63C1000.12,1270.75 999.94,1270.84 999.758,1270.9C999.575,1270.95 999.402,1270.98 999.237,1270.98L996.105,1270.98L996.105,1268.34L999.237,1268.34C999.468,1268.34 999.642,1268.25 999.758,1268.07C999.874,1267.88 999.932,1267.62 999.932,1267.27L999.932,1263.71C999.932,1263.35 999.873,1263.07 999.755,1262.9C999.637,1262.72 999.464,1262.63 999.237,1262.63L996.118,1262.63C995.882,1262.63 995.704,1262.72 995.584,1262.9C995.464,1263.08 995.403,1263.35 995.403,1263.69L995.403,1274.42L993.667,1274.42L993.667,1263.69C993.667,1263.24 993.705,1262.83 993.781,1262.47C993.856,1262.11 993.957,1261.79 994.084,1261.52C994.211,1261.24 994.357,1261.01 994.522,1260.82C994.687,1260.62 994.859,1260.47 995.039,1260.34C995.22,1260.22 995.402,1260.13 995.587,1260.07C995.772,1260.02 995.944,1259.99 996.105,1259.99L999.237,1259.99C999.535,1259.99 999.802,1260.05 1000.04,1260.16C1000.27,1260.28 1000.48,1260.43 1000.66,1260.62C1000.84,1260.81 1001,1261.03 1001.12,1261.28C1001.25,1261.53 1001.35,1261.79 1001.43,1262.07C1001.51,1262.34 1001.57,1262.62 1001.61,1262.9C1001.65,1263.17 1001.67,1263.44 1001.67,1263.69L1001.67,1267.27Z" style="fill:rgb(131,130,131);fill-rule:nonzero;"/>
            </g>
            <g transform="matrix(1.52314,0,0,1,-502.671,0)">
                <path d="M1009.68,1262.63L1006.65,1262.63L1006.65,1270.98L1004.89,1270.98L1004.89,1262.63L1002.64,1262.63L1002.64,1259.99L1004.89,1259.99L1004.89,1256.4L1006.65,1256.4L1006.65,1259.99L1009.68,1259.99L1009.68,1262.63Z" style="fill:rgb(131,130,131);fill-rule:nonzero;"/>
            </g>
            <g transform="matrix(1.52314,0,0,1,-502.671,0)">
                <path d="M1012.59,1257.73L1010.85,1257.73L1010.85,1255.34L1012.59,1255.34L1012.59,1257.73ZM1012.59,1270.98L1010.85,1270.98L1010.85,1259.99L1012.59,1259.99L1012.59,1270.98Z" style="fill:rgb(131,130,131);fill-rule:nonzero;"/>
            </g>
            <g transform="matrix(1.52314,0,0,1,-502.671,0)">
                <path d="M1021.24,1270.98L1016.53,1270.98C1016.29,1270.98 1016.03,1270.92 1015.75,1270.79C1015.46,1270.66 1015.2,1270.45 1014.96,1270.15C1014.71,1269.86 1014.51,1269.48 1014.35,1269.01C1014.19,1268.53 1014.1,1267.96 1014.1,1267.27L1014.1,1263.69C1014.1,1263.44 1014.12,1263.17 1014.16,1262.9C1014.2,1262.62 1014.26,1262.34 1014.34,1262.07C1014.42,1261.79 1014.52,1261.53 1014.65,1261.28C1014.77,1261.03 1014.93,1260.81 1015.11,1260.62C1015.29,1260.43 1015.5,1260.28 1015.73,1260.16C1015.97,1260.05 1016.24,1259.99 1016.53,1259.99L1021.24,1259.99L1021.24,1262.63L1016.53,1262.63C1016.31,1262.63 1016.13,1262.72 1016.02,1262.9C1015.9,1263.07 1015.84,1263.35 1015.84,1263.71L1015.84,1267.27C1015.84,1267.62 1015.9,1267.88 1016.02,1268.07C1016.14,1268.25 1016.32,1268.34 1016.55,1268.34L1021.24,1268.34L1021.24,1270.98Z" style="fill:rgb(131,130,131);fill-rule:nonzero;"/>
            </g>
            <g transform="matrix(1.52314,0,0,1,-502.671,0)">
                <path d="M1029.66,1267.27C1029.66,1267.73 1029.62,1268.13 1029.55,1268.5C1029.47,1268.86 1029.37,1269.18 1029.24,1269.45C1029.12,1269.73 1028.97,1269.96 1028.81,1270.15C1028.64,1270.35 1028.47,1270.51 1028.29,1270.63C1028.11,1270.75 1027.93,1270.84 1027.75,1270.9C1027.56,1270.95 1027.38,1270.98 1027.22,1270.98L1022.52,1270.98L1022.52,1268.34L1027.21,1268.34C1027.44,1268.34 1027.62,1268.25 1027.74,1268.07C1027.86,1267.88 1027.92,1267.62 1027.92,1267.27C1027.9,1266.57 1027.67,1266.21 1027.22,1266.21L1024.53,1266.21C1024.15,1266.21 1023.82,1266.11 1023.55,1265.91C1023.29,1265.7 1023.07,1265.45 1022.9,1265.14C1022.74,1264.84 1022.62,1264.51 1022.54,1264.16C1022.47,1263.81 1022.43,1263.48 1022.43,1263.17C1022.43,1262.58 1022.5,1262.09 1022.64,1261.68C1022.78,1261.28 1022.95,1260.95 1023.16,1260.7C1023.37,1260.45 1023.6,1260.27 1023.84,1260.16C1024.09,1260.04 1024.32,1259.99 1024.53,1259.99L1028.8,1259.99L1028.8,1262.63L1024.54,1262.63C1024.45,1262.63 1024.38,1262.65 1024.33,1262.68C1024.28,1262.71 1024.24,1262.75 1024.22,1262.8C1024.19,1262.85 1024.18,1262.9 1024.17,1262.96L1024.17,1263.13C1024.17,1263.24 1024.19,1263.32 1024.21,1263.38C1024.23,1263.45 1024.26,1263.49 1024.29,1263.52C1024.33,1263.55 1024.36,1263.56 1024.4,1263.56C1024.45,1263.57 1024.49,1263.57 1024.53,1263.57L1027.22,1263.57C1027.67,1263.57 1028.04,1263.69 1028.36,1263.93C1028.67,1264.18 1028.92,1264.49 1029.11,1264.86C1029.3,1265.23 1029.44,1265.63 1029.53,1266.06C1029.62,1266.5 1029.66,1266.9 1029.66,1267.27Z" style="fill:rgb(131,130,131);fill-rule:nonzero;"/>
            </g>
            <g transform="matrix(1.32079,0,0,1.32079,-311.733,-482.851)">
                <path d="M1044.64,1311.37L1043.98,1308.36C1043.98,1308.36 1063.93,1301.01 1057.49,1313.11C1054.45,1318.1 1047.54,1326.62 1047.54,1326.62L1058.76,1325.34C1058.76,1325.34 1045.28,1330.72 1044.36,1328.65C1043.45,1326.58 1054.44,1312.92 1054.41,1310.03C1054.38,1307.13 1044.64,1311.37 1044.64,1311.37" style="fill:rgb(212,40,51);"/>
            </g>
            <g transform="matrix(1.32079,0,0,1.32079,-311.733,-482.851)">
                <path d="M1070.29,1307.8L1070.29,1305.14L1061.63,1305.31L1059.39,1314.16C1059.39,1314.16 1070.8,1311.07 1071.48,1315.8C1070.81,1322.59 1055.3,1329.24 1055.3,1329.24C1055.3,1329.24 1071.65,1325.72 1075.13,1320.16C1077.41,1318.56 1077.5,1313.76 1074.85,1311.83C1073.13,1309.75 1065.8,1310.31 1065.8,1310.31L1065.8,1308.06L1070.29,1307.8Z" style="fill:rgb(212,40,51);"/>
            </g>
            <g transform="matrix(0.305778,-0.00716276,0.00662836,0.282965,781.929,870.348)">
                <rect x="1017.34" y="1336.9" width="7.906" height="1.589" style="fill:rgb(255,240,0);"/>
            </g>
            <g transform="matrix(0.336855,-0.00789073,0.00662836,0.282965,748.815,871.158)">
                <ellipse cx="1030.39" cy="1337.66" rx="2.039" ry="1.867" style="fill:rgb(255,240,0);"/>
            </g>
            <g transform="matrix(0.31177,-0.00730313,0.00662836,0.282965,775.773,872.887)">
                <rect x="1017.34" y="1336.9" width="7.906" height="1.589" style="fill:rgb(255,0,0);"/>
            </g>
            <g transform="matrix(0.336855,-0.00789073,0.00662836,0.282965,748.874,873.552)">
                <ellipse cx="1030.39" cy="1337.66" rx="2.039" ry="1.867" style="fill:rgb(255,0,0);"/>
            </g>
            <g transform="matrix(0.472307,-0.0110637,0.00584579,0.249556,613.498,920.651)">
                <rect x="1017.34" y="1336.9" width="7.906" height="1.589" style="fill:rgb(0,110,255);"/>
            </g>
            <g transform="matrix(0.336855,-0.00789073,0.00662836,0.282965,749.89,872.782)">
                <ellipse cx="1030.39" cy="1337.66" rx="2.039" ry="1.867" style="fill:rgb(0,110,255);"/>
            </g>
            <g transform="matrix(0.601963,-0.0141008,0.00662836,0.282965,480.604,878.184)">
                <rect x="1017.34" y="1336.9" width="7.906" height="1.589" style="fill:rgb(1,255,0);"/>
            </g>
            <g transform="matrix(0.336855,-0.00789073,0.00662836,0.282965,751.125,871.829)">
                <ellipse cx="1030.39" cy="1337.66" rx="2.039" ry="1.867" style="fill:rgb(1,255,0);"/>
            </g>
            <g transform="matrix(0.336855,-0.00789073,0.00662836,0.282965,748.815,871.158)">
                <ellipse cx="1030.39" cy="1337.66" rx="2.039" ry="1.867" style="fill:rgb(255,240,0);"/>
            </g>
            <g transform="matrix(0.336855,-0.00789073,0.00662836,0.282965,748.874,873.552)">
                <ellipse cx="1030.39" cy="1337.66" rx="2.039" ry="1.867" style="fill:rgb(255,0,0);"/>
            </g>
            <g transform="matrix(0.469611,-0.0110005,0.00584579,0.249556,616.333,920.586)">
                <rect x="1017.34" y="1336.9" width="7.906" height="1.589" style="fill:rgb(0,110,255);"/>
            </g>
            <g transform="matrix(0.336855,-0.00789073,0.00662836,0.282965,749.89,872.782)">
                <ellipse cx="1030.39" cy="1337.66" rx="2.039" ry="1.867" style="fill:rgb(0,110,255);"/>
            </g>
            <g transform="matrix(0.336855,-0.00789073,0.00662836,0.282965,751.125,871.829)">
                <ellipse cx="1030.39" cy="1337.66" rx="2.039" ry="1.867" style="fill:rgb(1,255,0);"/>
            </g>
            <g transform="matrix(0.115822,-0.03274,0.0318666,0.112732,824.068,1204.91)">
                <path d="M775.864,684.26C777.036,688.331 777.644,692.506 777.644,696.76C777.644,740.045 714.622,775.186 636.996,775.186C559.37,775.186 496.348,740.045 496.348,696.76C496.348,692.506 496.956,688.331 498.128,684.26C508.876,721.613 566.999,750.186 636.996,750.186C706.993,750.186 765.116,721.613 775.864,684.26Z" style="fill:rgb(231,232,233);"/>
            </g>
        </g>
    </g>
</svg>
